<?xml version="1.0" encoding="utf-8"?>
<!-- Generator: Adobe Illustrator 13.0.0, SVG Export Plug-In . SVG Version: 6.00 Build 14948)  -->
<!DOCTYPE svg PUBLIC "-//W3C//DTD SVG 1.0//EN" "http://www.w3.org/TR/2001/REC-SVG-20010904/DTD/svg10.dtd">
<svg version="1.0" id="Ebene_1" xmlns="http://www.w3.org/2000/svg" xmlns:xlink="http://www.w3.org/1999/xlink" x="0px" y="0px"
	 width="187.086px" height="104.334px" viewBox="0 0 187.086 104.334" enable-background="new 0 0 187.086 104.334"
	 xml:space="preserve">
<polygon fill-rule="evenodd" clip-rule="evenodd" fill="#E2001A" points="187.086,104.334 187.086,0 0,0 0,104.334 187.086,104.334 
	"/>
<path fill-rule="evenodd" clip-rule="evenodd" fill="#FFFFFF" d="M14.17,19.052h8.987c17.337,0,19.008,11.134,19.008,28.313
	c0,16.383-1.352,28.313-17.337,28.313H14.17V19.052L14.17,19.052z M24.509,66.93c6.521-0.08,6.839-2.465,6.839-19.645
	c0-17.099-0.318-19.405-6.839-19.485V66.93L24.509,66.93z"/>
<polygon fill-rule="evenodd" clip-rule="evenodd" fill="#FFFFFF" points="48.271,19.052 58.61,19.052 58.61,75.678 48.271,75.678 
	48.271,19.052 "/>
<polygon fill-rule="evenodd" clip-rule="evenodd" fill="#FFFFFF" points="65.519,19.052 88.901,19.052 88.901,27.8 75.857,27.8 
	75.857,42.274 85.48,42.274 85.48,51.5 75.857,51.5 75.857,66.93 89.458,66.93 89.458,75.678 65.519,75.678 65.519,19.052 "/>
<path fill-rule="evenodd" clip-rule="evenodd" fill="#FFFFFF" d="M101.213,59.295c0,3.18,0,8.748,4.453,8.748
	c3.42,0,4.613-3.182,4.613-5.488c0-10.1-18.77-12.406-18.77-29.188c0-8.51,4.612-15.429,13.361-15.429
	c9.305,0,12.884,7.078,13.122,17.258h-9.226c0-3.181,0-8.509-4.135-8.509c-2.466,0-3.897,2.067-3.897,5.169
	c0,9.624,18.77,12.884,18.77,29.347c0,8.668-4.931,15.588-14.236,15.588c-11.055,0-13.281-9.703-13.281-17.496H101.213
	L101.213,59.295z"/>
<polygon fill-rule="evenodd" clip-rule="evenodd" fill="#FFFFFF" points="124.188,19.052 147.57,19.052 147.57,27.8 134.527,27.8 
	134.527,42.274 144.15,42.274 144.15,51.5 134.527,51.5 134.527,66.93 148.126,66.93 148.126,75.678 124.188,75.678 124.188,19.052 
	"/>
<polygon fill-rule="evenodd" clip-rule="evenodd" fill="#FFFFFF" points="152.804,19.052 163.143,19.052 163.143,66.93 
	174.415,66.93 174.415,75.678 152.804,75.678 152.804,19.052 "/>
<path fill-rule="evenodd" clip-rule="evenodd" fill="#FFFFFF" d="M168.948,21.676c0-1.453,1.228-2.643,2.741-2.643
	c1.506,0,2.726,1.19,2.726,2.643c0,1.483-1.22,2.673-2.726,2.673C170.175,24.349,168.948,23.159,168.948,21.676L168.948,21.676z
	 M169.467,21.676c0,1.212,0.986,2.153,2.222,2.153c1.22,0,2.206-0.941,2.206-2.153c0-1.175-0.986-2.124-2.206-2.124
	C170.454,19.552,169.467,20.501,169.467,21.676L169.467,21.676z M173.051,23.174h-0.519l-0.874-1.371h-0.534v1.371h-0.452V20.2
	h1.333c0.256,0,0.512,0.015,0.745,0.143c0.226,0.128,0.339,0.392,0.339,0.64c0,0.587-0.422,0.806-0.964,0.821L173.051,23.174
	L173.051,23.174z M171.621,21.435c0.43,0,1.017,0.075,1.017-0.459c0-0.384-0.339-0.437-0.723-0.437h-0.79v0.896H171.621
	L171.621,21.435z"/>
<polygon fill-rule="evenodd" clip-rule="evenodd" fill="#FFFFFF" points="19.712,86.037 16.428,86.037 16.428,87.15 18.554,87.15 
	18.554,88.398 16.428,88.398 16.428,90.656 14.473,90.656 14.473,84.738 19.712,84.738 19.712,86.037 "/>
<path fill-rule="evenodd" clip-rule="evenodd" fill="#FFFFFF" d="M25.188,90.738c-1.853,0-3.417-1.203-3.41-3.107
	c-0.022-2.029,1.572-2.975,3.41-2.975c1.852,0,3.313,1.166,3.32,2.988C28.516,89.52,27.04,90.738,25.188,90.738L25.188,90.738z
	 M26.176,86.93c-0.037-0.51-0.472-1.078-1.041-1.078c-0.59,0-0.974,0.563-1.033,1.078c-0.03,0.311-0.096,1.107-0.007,1.609
	c0.096,0.59,0.494,1.047,1.04,1.047c0.539,0,0.916-0.457,1.004-1.063C26.206,88.109,26.199,87.283,26.176,86.93L26.176,86.93z"/>
<path fill-rule="evenodd" clip-rule="evenodd" fill="#FFFFFF" d="M33.188,88.436v2.221h-1.963v-5.918h4.228
	c1.248,0,1.875,0.744,1.912,1.764c0.029,0.826-0.472,1.578-1.21,1.838l1.144,2.316h-2.133l-0.959-2.221H33.188L33.188,88.436z
	 M33.188,87.188h1.409c0.347,0,0.62-0.279,0.62-0.619s-0.28-0.621-0.62-0.621h-1.409V87.188L33.188,87.188z"/>
<path fill-rule="evenodd" clip-rule="evenodd" fill="#FFFFFF" d="M46.267,86.414c0,0.146,0.199,0.242,0.347,0.266
	c0.546,0.08,0.568,0.064,1.262,0.168c0.893,0.127,1.587,0.518,1.963,1.322c0.199,0.42,0.169,1.018-0.133,1.498
	c-0.583,0.914-1.867,1.039-2.398,1.063c-0.767,0.037-2.583-0.059-3.35-1.291l0.944-0.725c0.133,0.111,0.34,0.297,0.473,0.385
	c0.679,0.516,1.675,0.494,2.155,0.354c0.133-0.037,0.288-0.133,0.325-0.207c0.104-0.162,0.044-0.404-0.177-0.441
	c-0.413-0.09-0.649-0.066-1.594-0.377c-0.576-0.17-1.321-0.449-1.69-1.211c-0.222-0.441-0.214-1.063,0.029-1.506
	c0.362-0.693,1.402-0.943,1.845-1.01c1.085-0.141,2.339,0.037,3.41,1.01l-0.974,0.738c-0.664-0.486-1.646-0.531-2.199-0.316
	C46.363,86.199,46.267,86.266,46.267,86.414L46.267,86.414z"/>
<path fill-rule="evenodd" clip-rule="evenodd" fill="#FFFFFF" d="M55.84,89.307c0.768,0,1.137-0.289,1.137-0.783v-3.785h1.52v4.021
	c0,1.277-0.694,1.979-2.679,1.979h-0.384c-1.985,0-2.679-0.709-2.679-1.979v-4.021h1.97v3.801
	C54.726,88.996,55.066,89.307,55.84,89.307L55.84,89.307z"/>
<path fill-rule="evenodd" clip-rule="evenodd" fill="#FFFFFF" d="M67.6,88.648c-0.163,0.959-1.033,1.713-1.919,1.957
	c-0.258,0.072-0.797,0.133-1.247,0.133c-1.697,0-3.173-1.365-3.166-3.115c0-1.689,1.476-2.967,3.151-2.967
	c0.561,0,0.982,0.082,1.262,0.154c0.886,0.223,1.646,0.887,1.808,1.846l-1.66,0.178c-0.022-0.768-0.716-1.012-1.21-0.982
	c-0.687,0.029-1.203,0.598-1.203,1.801v0.141c0,1.211,0.517,1.75,1.181,1.801c0.76,0.045,1.24-0.141,1.373-1.158L67.6,88.648
	L67.6,88.648z"/>
<path fill-rule="evenodd" clip-rule="evenodd" fill="#FFFFFF" d="M76.548,88.648c-0.163,0.959-1.033,1.713-1.919,1.957
	c-0.258,0.072-0.797,0.133-1.247,0.133c-1.697,0-3.173-1.365-3.166-3.115c0-1.689,1.476-2.967,3.151-2.967
	c0.561,0,0.981,0.082,1.262,0.154c0.886,0.223,1.646,0.887,1.808,1.846l-1.66,0.178c-0.022-0.768-0.716-1.012-1.21-0.982
	c-0.686,0.029-1.203,0.598-1.203,1.801v0.141c0,1.211,0.517,1.75,1.181,1.801c0.76,0.045,1.239-0.141,1.373-1.158L76.548,88.648
	L76.548,88.648z"/>
<polygon fill-rule="evenodd" clip-rule="evenodd" fill="#FFFFFF" points="84.75,90.656 79.26,90.656 79.26,84.738 84.507,84.738 
	84.507,86.037 81.223,86.037 81.223,87.15 83.341,87.15 83.341,88.398 81.223,88.398 81.223,89.424 84.75,89.424 84.75,90.656 "/>
<path fill-rule="evenodd" clip-rule="evenodd" fill="#FFFFFF" d="M89.498,86.414c0,0.146,0.199,0.242,0.347,0.266
	c0.546,0.08,0.568,0.064,1.262,0.168c0.893,0.127,1.587,0.518,1.963,1.322c0.199,0.42,0.17,1.018-0.133,1.498
	c-0.583,0.914-1.867,1.039-2.398,1.063c-0.768,0.037-2.583-0.059-3.35-1.291l0.944-0.725c0.133,0.111,0.339,0.297,0.473,0.385
	c0.679,0.516,1.675,0.494,2.155,0.354c0.133-0.037,0.288-0.133,0.325-0.207c0.104-0.162,0.044-0.404-0.177-0.441
	c-0.413-0.09-0.649-0.066-1.594-0.377c-0.575-0.17-1.321-0.449-1.689-1.211c-0.222-0.441-0.214-1.063,0.029-1.506
	c0.361-0.693,1.402-0.943,1.845-1.01c1.085-0.141,2.339,0.037,3.41,1.01l-0.974,0.738c-0.665-0.486-1.646-0.531-2.199-0.316
	C89.594,86.199,89.498,86.266,89.498,86.414L89.498,86.414z"/>
<path fill-rule="evenodd" clip-rule="evenodd" fill="#FFFFFF" d="M97.906,86.414c0,0.146,0.199,0.242,0.347,0.266
	c0.547,0.08,0.568,0.064,1.263,0.168c0.893,0.127,1.586,0.518,1.963,1.322c0.199,0.42,0.17,1.018-0.133,1.498
	c-0.583,0.914-1.867,1.039-2.398,1.063c-0.768,0.037-2.583-0.059-3.351-1.291l0.944-0.725c0.133,0.111,0.34,0.297,0.473,0.385
	c0.679,0.516,1.675,0.494,2.154,0.354c0.133-0.037,0.288-0.133,0.325-0.207c0.104-0.162,0.044-0.404-0.177-0.441
	c-0.414-0.09-0.65-0.066-1.595-0.377c-0.575-0.17-1.32-0.449-1.689-1.211c-0.222-0.441-0.214-1.063,0.029-1.506
	c0.361-0.693,1.402-0.943,1.845-1.01c1.085-0.141,2.34,0.037,3.409,1.01l-0.974,0.738c-0.664-0.486-1.646-0.531-2.199-0.316
	C98.001,86.199,97.906,86.266,97.906,86.414L97.906,86.414z"/>
<polygon fill-rule="evenodd" clip-rule="evenodd" fill="#FFFFFF" points="109.59,86.037 106.306,86.037 106.306,87.15 
	108.432,87.15 108.432,88.398 106.306,88.398 106.306,90.656 104.351,90.656 104.351,84.738 109.59,84.738 109.59,86.037 "/>
<path fill-rule="evenodd" clip-rule="evenodd" fill="#FFFFFF" d="M115.548,89.307c0.768,0,1.137-0.289,1.137-0.783v-3.785h1.521
	v4.021c0,1.277-0.694,1.979-2.679,1.979h-0.384c-1.985,0-2.679-0.709-2.679-1.979v-4.021h1.97v3.801
	C114.434,88.996,114.774,89.307,115.548,89.307L115.548,89.307z"/>
<polygon fill-rule="evenodd" clip-rule="evenodd" fill="#FFFFFF" points="123.049,84.738 123.049,89.357 125.89,89.357 
	125.89,90.656 121.079,90.656 121.079,84.738 123.049,84.738 "/>
<polygon fill-rule="evenodd" clip-rule="evenodd" fill="#FFFFFF" points="134.833,84.738 134.833,89.357 137.674,89.357 
	137.674,90.656 132.863,90.656 132.863,84.738 134.833,84.738 "/>
<polygon fill-rule="evenodd" clip-rule="evenodd" fill="#FFFFFF" points="142.411,84.738 142.411,90.656 140.448,90.656 
	140.448,84.738 142.411,84.738 "/>
<polygon fill-rule="evenodd" clip-rule="evenodd" fill="#FFFFFF" points="146.935,84.738 148.412,88.547 149.909,84.738 
	151.622,84.738 149.282,90.656 147.252,90.656 144.95,84.715 146.935,84.738 "/>
<polygon fill-rule="evenodd" clip-rule="evenodd" fill="#FFFFFF" points="156.248,84.738 156.248,90.656 154.285,90.656 
	154.285,84.738 156.248,84.738 "/>
<polygon fill-rule="evenodd" clip-rule="evenodd" fill="#FFFFFF" points="163.554,87.941 163.554,84.738 165.082,84.738 
	165.082,90.656 163.451,90.656 160.617,87.262 160.617,90.656 159.104,90.656 159.104,84.738 160.882,84.738 163.554,87.941 "/>
<path fill-rule="evenodd" clip-rule="evenodd" fill="#FFFFFF" d="M171.124,88.693v-1.137h3.063v3.115h-0.701l-0.486-0.635
	c-0.568,0.531-1.564,0.701-2.281,0.701c-1.675,0-2.914-1.469-2.914-3.145c0-1.697,1.461-2.938,3.158-2.938
	c0.45,0,0.988,0.059,1.247,0.119c0.893,0.236,1.683,0.885,1.845,1.852l-1.668,0.178c0-0.576-0.627-0.99-1.239-0.99
	c-0.68,0-1.203,0.377-1.203,1.277v1.285c0,0.826,0.605,1.166,1.276,1.166c0.524,0,1.085-0.43,1.085-0.797
	c0-0.037-0.015-0.053-0.059-0.053H171.124L171.124,88.693z"/>
</svg>
